<svg xmlns="http://www.w3.org/2000/svg" xmlns:xlink="http://www.w3.org/1999/xlink" width="136" height="27" viewBox="0 0 136 27">
    <defs>
        <ellipse id="a" cx="13.167" cy="13.275" rx="13.167" ry="13.275"/>
        <ellipse id="c" cx="13.167" cy="13.275" rx="13.167" ry="13.275"/>
        <ellipse id="e" cx="13.167" cy="13.275" rx="13.167" ry="13.275"/>
        <ellipse id="g" cx="13.167" cy="13.275" rx="13.167" ry="13.275"/>
    </defs>
    <g fill="none" fill-rule="evenodd">
        <path fill="#FFF" d="M38.215 7.462c-.233.2-.39.426-.47.677-.08.25-.12.517-.12.8 0 .282.12.542.36.78.24.239.556.44.95.602a9.55 9.55 0 0 0 1.345.433l1.54.386c.522.132 1.035.282 1.539.451.504.17.952.386 1.346.65.872.564 1.309 1.335 1.309 2.314 0 1.166-.427 2.057-1.282 2.672-.854.614-2.037.922-3.549.922-1.708 0-3.01-.364-3.908-1.092-.799-.652-1.254-1.58-1.364-2.784h1.438c.049.853.454 1.505 1.216 1.956.664.39 1.543.584 2.637.584 2.286 0 3.429-.734 3.429-2.202 0-.501-.206-.897-.618-1.185-.411-.289-.928-.527-1.548-.715-.621-.188-1.29-.364-2.01-.527a12.42 12.42 0 0 1-2.01-.63c-.62-.257-1.136-.596-1.548-1.016-.412-.42-.618-.988-.618-1.703 0-1.016.381-1.844 1.143-2.484.762-.64 1.912-.96 3.448-.96 1.549 0 2.747.365 3.595 1.092.774.64 1.186 1.461 1.235 2.465h-1.42c-.122-1.029-.774-1.712-1.954-2.05-.417-.126-.937-.19-1.557-.19-.621 0-1.143.073-1.568.217-.424.145-.752.323-.986.537zm10.638 10.536V9.832h-1.88V8.59h1.88V5.223h1.383V8.59h2.12v1.242h-2.12v8.166h-1.383zm12.02-1.505c-.737 1.104-1.837 1.656-3.3 1.656-1.327 0-2.409-.47-3.245-1.412-.81-.928-1.216-2.076-1.216-3.443s.405-2.515 1.216-3.443c.836-.94 1.948-1.411 3.337-1.411 1.39 0 2.459.558 3.208 1.674V8.59h1.383v9.408h-1.383v-1.505zm-3.115.376c.995 0 1.782-.351 2.36-1.054.552-.664.829-1.505.829-2.52 0-1.017-.277-1.857-.83-2.522-.577-.702-1.364-1.054-2.36-1.054-.983 0-1.782.352-2.396 1.054-.578.665-.867 1.505-.867 2.521s.29 1.857.867 2.521c.614.703 1.413 1.054 2.397 1.054zm7.89 1.129V9.832h-1.88V8.59h1.88V5.223h1.383V8.59h2.12v1.242h-2.12v8.166h-1.383zm5.015-9.408h1.383v9.408h-1.383V8.59zM72.1 5.166V7.01h-1.493V5.166H72.1zm6.6 11.703c.59 0 1.112-.17 1.567-.508.455-.339.787-.778.996-1.317h1.493c-.283.928-.799 1.675-1.549 2.24-.786.576-1.72.865-2.802.865-1.352 0-2.452-.47-3.3-1.412-.823-.915-1.235-2.063-1.235-3.443s.412-2.527 1.235-3.443c.848-.94 1.948-1.411 3.3-1.411 1.082 0 2.016.288 2.802.865.75.565 1.266 1.311 1.549 2.24h-1.493a2.925 2.925 0 0 0-.996-1.318 2.554 2.554 0 0 0-1.567-.508c-.59 0-1.09.094-1.502.283a3.019 3.019 0 0 0-1.042.771c-.602.677-.904 1.518-.904 2.521 0 1.004.302 1.844.904 2.521.614.703 1.462 1.054 2.544 1.054zm7.153-6.773c.738-1.104 1.838-1.656 3.3-1.656 1.328 0 2.403.47 3.227 1.411.823.928 1.235 2.076 1.235 3.443s-.412 2.515-1.235 3.443c-.824.941-1.93 1.412-3.319 1.412s-2.458-.559-3.208-1.675v5.25h-1.382V8.59h1.382v1.506zm3.116-.377c-.996 0-1.782.352-2.36 1.054-.553.665-.83 1.505-.83 2.521s.277 1.857.83 2.521c.578.703 1.364 1.054 2.36 1.054.983 0 1.782-.351 2.397-1.054.577-.664.866-1.505.866-2.52 0-1.017-.289-1.857-.866-2.522-.615-.702-1.414-1.054-2.397-1.054zm7.835-4.892v5.231a4.664 4.664 0 0 1 1.217-1.148 2.93 2.93 0 0 1 1.641-.47c.615 0 1.143.088 1.586.263.442.176.83.44 1.161.79.762.766 1.143 1.775 1.143 3.03v5.475h-1.383V12.56c0-.865-.24-1.555-.719-2.07-.479-.513-1.1-.77-1.862-.77-.774 0-1.432.263-1.972.79-.541.539-.812 1.229-.812 2.07v5.418h-1.382V4.828h1.382zm13.053 3.613c1.377 0 2.495.47 3.356 1.411.81.903 1.216 2.05 1.216 3.443 0 1.393-.405 2.54-1.216 3.443-.86.941-1.98 1.412-3.356 1.412s-2.495-.47-3.355-1.412c-.811-.903-1.217-2.05-1.217-3.443 0-1.392.406-2.54 1.217-3.443.86-.94 1.979-1.411 3.355-1.411zm0 8.43c.996 0 1.782-.352 2.36-1.055.553-.664.83-1.505.83-2.52 0-1.017-.277-1.857-.83-2.522-.578-.702-1.364-1.054-2.36-1.054-.995 0-1.782.352-2.36 1.054-.553.665-.83 1.505-.83 2.521s.277 1.857.83 2.521c.578.703 1.365 1.054 2.36 1.054zm7.78-8.28v1.468a4.664 4.664 0 0 1 1.217-1.148 2.93 2.93 0 0 1 1.64-.47c.615 0 1.144.088 1.586.263.443.176.83.44 1.162.79.762.766 1.143 1.775 1.143 3.03v5.475h-1.383V12.56c0-.865-.24-1.555-.719-2.07-.48-.513-1.1-.77-1.862-.77-.774 0-1.432.263-1.972.79-.541.539-.812 1.229-.812 2.07v5.418h-1.382V8.59h1.382zm13.164 8.28c1.241 0 2.132-.528 2.673-1.581h1.512a4.533 4.533 0 0 1-1.521 2.07c-.695.526-1.589.79-2.683.79-1.389 0-2.52-.47-3.392-1.412-.848-.915-1.272-2.063-1.272-3.443 0-1.392.406-2.54 1.217-3.443.86-.94 1.979-1.411 3.355-1.411 1.377 0 2.495.47 3.356 1.411.81.903 1.216 2.05 1.216 3.443v.565h-7.724c.098.865.436 1.58 1.014 2.145.59.577 1.34.865 2.249.865zm-.11-7.15c-.849 0-1.562.269-2.14.808-.54.515-.872 1.186-.995 2.014h6.268c-.123-.828-.454-1.5-.995-2.014-.578-.539-1.29-.809-2.139-.809z"/>
        <ellipse cx="13.167" cy="13.275" fill="#E8E8E8" rx="13.167" ry="13.275"/>
        <g>
            <mask id="b" fill="#fff">
                <use xlink:href="#a"/>
            </mask>
            <ellipse cx="13.74" cy="13.748" fill="#585C5F" mask="url(#b)" rx="11.242" ry="11.334"/>
        </g>
        <g>
            <mask id="d" fill="#fff">
                <use xlink:href="#c"/>
            </mask>
            <ellipse cx="14.885" cy="14.902" fill="#FAFAFA" mask="url(#d)" rx="9.368" ry="9.445"/>
        </g>
        <g>
            <mask id="f" fill="#fff">
                <use xlink:href="#e"/>
            </mask>
            <g mask="url(#f)">
                <g transform="translate(8.431 8.395)">
                    <ellipse cx="7.494" cy="7.556" fill="#585C5F" rx="7.494" ry="7.556"/>
                    <path fill="#FFF" fill-rule="nonzero" d="M3.52 6.379a3.54 3.54 0 0 1 .858-2.442 3.484 3.484 0 0 1 2.279-1.196l.045.67a2.82 2.82 0 0 0-1.822.966 2.865 2.865 0 0 0-.695 1.954l-.665.048zm1.163-.083a2.36 2.36 0 0 1 .573-1.589c.38-.44.907-.723 1.48-.793l.047.671a1.66 1.66 0 0 0-1.024.562c-.264.305-.41.696-.41 1.1l-.666.049zm1.166-.084a1.179 1.179 0 0 1 .968-1.122l.071 1.048-1.039.074z"/>
                    <path fill="#FFF" d="M7.627 10.06l-.622-.994a.2.2 0 0 0-.26-.072l-2.47 1.245a.203.203 0 0 0-.097.256L5 12.57a.2.2 0 0 0 .22.124c1.902-.329 3.526-1.171 4.868-2.524 1.34-1.352 2.176-2.99 2.503-4.906a.203.203 0 0 0-.124-.223l-2.059-.83a.2.2 0 0 0-.253.097L8.92 6.8a.203.203 0 0 0 .073.262l.985.628c-.3.476-.65.917-1.047 1.314-.394.4-.831.754-1.304 1.056z"/>
                </g>
            </g>
        </g>
        <g>
            <mask id="h" fill="#fff">
                <use xlink:href="#g"/>
            </mask>
            <path fill="#000" fill-opacity=".03" d="M-2.98 37.044l27.06-14.98c5.047-2.793 4.89-6.959-.349-9.304L-5.639-.387l2.659 37.431z" mask="url(#h)" transform="rotate(-20 11.063 18.328)"/>
        </g>
    </g>
</svg>
